<svg width="20" height="20" viewBox="0 0 20 20" fill="none" xmlns="http://www.w3.org/2000/svg">
<g clip-path="url(#clip0_49_118)">
<path d="M12.1092 2.9425C11.8242 2.6575 11.4417 2.5 11.0442 2.5H5.66669C4.84169 2.5 4.16669 3.175 4.16669 4V16C4.16669 16.825 4.83419 17.5 5.65919 17.5H14.6667C15.4917 17.5 16.1667 16.825 16.1667 16V7.6225C16.1667 7.225 16.0092 6.8425 15.7242 6.565L12.1092 2.9425ZM12.4167 14.5H7.91669C7.50419 14.5 7.16669 14.1625 7.16669 13.75C7.16669 13.3375 7.50419 13 7.91669 13H12.4167C12.8292 13 13.1667 13.3375 13.1667 13.75C13.1667 14.1625 12.8292 14.5 12.4167 14.5ZM12.4167 11.5H7.91669C7.50419 11.5 7.16669 11.1625 7.16669 10.75C7.16669 10.3375 7.50419 10 7.91669 10H12.4167C12.8292 10 13.1667 10.3375 13.1667 10.75C13.1667 11.1625 12.8292 11.5 12.4167 11.5ZM10.9167 7V3.625L15.0417 7.75H11.6667C11.2542 7.75 10.9167 7.4125 10.9167 7Z" fill="black"/>
</g>
<defs>
<clipPath id="clip0_49_118">
<rect width="20" height="20" fill="white"/>
</clipPath>
</defs>
</svg>
