<svg width="20" height="20" viewBox="0 0 20 20" fill="none" xmlns="http://www.w3.org/2000/svg">
<g clip-path="url(#clip0_49_106)">
<path fill-rule="evenodd" clip-rule="evenodd" d="M12.1017 2.935L15.7242 6.5575C16.0092 6.8425 16.1667 7.225 16.1667 7.6225V16C16.1667 16.825 15.4917 17.5 14.6667 17.5H5.66669C4.84169 17.5 4.16669 16.825 4.16669 16V4C4.16669 3.175 4.84169 2.5 5.66669 2.5H11.0442C11.4417 2.5 11.8242 2.6575 12.1017 2.935ZM9.71671 8.20008C9.71671 7.95258 9.91921 7.75008 10.1667 7.75008C10.4142 7.75008 10.6167 7.95258 10.6167 8.20008V9.55008H11.9667C12.2142 9.55008 12.4167 9.75258 12.4167 10.0001C12.4167 10.2476 12.2142 10.4501 11.9667 10.4501H10.6167V11.8001C10.6167 12.0476 10.4142 12.2501 10.1667 12.2501C9.91921 12.2501 9.71671 12.0476 9.71671 11.8001V10.4501H8.36671C8.11921 10.4501 7.91671 10.2476 7.91671 10.0001C7.91671 9.75258 8.11921 9.55008 8.36671 9.55008H9.71671V8.20008ZM5.66671 10.0001C5.66671 7.52058 7.68721 5.50008 10.1667 5.50008C12.6462 5.50008 14.6667 7.52058 14.6667 10.0001C14.6667 12.4796 12.6462 14.5001 10.1667 14.5001C7.68721 14.5001 5.66671 12.4796 5.66671 10.0001ZM6.56671 10.0001C6.56671 11.9846 8.18221 13.6001 10.1667 13.6001C12.1512 13.6001 13.7667 11.9846 13.7667 10.0001C13.7667 8.01558 12.1512 6.40008 10.1667 6.40008C8.18221 6.40008 6.56671 8.01558 6.56671 10.0001Z" fill="black"/>
</g>
<defs>
<clipPath id="clip0_49_106">
<rect width="20" height="20" fill="white"/>
</clipPath>
</defs>
</svg>
