<svg width="24" height="24" viewBox="0 0 24 24" fill="none" xmlns="http://www.w3.org/2000/svg">
<path d="M11.7147 5.5L9.75415 8H13.6558L11.7147 5.5ZM17.5575 10V14L19.996 12.01L17.5575 10ZM5.85249 10L3.41394 12.01L5.85249 14V10ZM13.6558 16H9.75415L11.7147 18.5L13.6558 16ZM20.4837 3H2.92624C1.85328 3 0.975403 3.9 0.975403 5V19C0.975403 20.1 1.85328 21 2.92624 21H20.4837C21.5567 21 22.4346 20.1 22.4346 19V5C22.4346 3.9 21.5567 3 20.4837 3ZM20.4837 19.01H2.92624V4.99H20.4837V19.01Z" fill="white"/>
</svg>
