<svg width="24" height="24" viewBox="0 0 24 24" fill="none" xmlns="http://www.w3.org/2000/svg">
<path d="M6.25 14.25H9.925C10.1083 13.8667 10.3208 13.5083 10.5625 13.175C10.8042 12.8417 11.075 12.5333 11.375 12.25H6.25V14.25ZM6.25 18.25H9.325C9.275 17.9167 9.25 17.5833 9.25 17.25C9.25 16.9167 9.275 16.5833 9.325 16.25H6.25V18.25ZM2.25 22.25V2.25H12.25L18.25 8.25V10.55C17.9333 10.45 17.6083 10.375 17.275 10.325C16.9417 10.275 16.6 10.25 16.25 10.25V9.25H11.25V4.25H4.25V20.25H9.925C10.1083 20.6333 10.3208 20.9917 10.5625 21.325C10.8042 21.6583 11.075 21.9667 11.375 22.25H2.25Z" fill="#1B75BB"/>
<path fill-rule="evenodd" clip-rule="evenodd" d="M12.7125 20.7875C13.6875 21.7625 14.8667 22.25 16.25 22.25C17.6333 22.25 18.8125 21.7625 19.7875 20.7875C20.7625 19.8125 21.25 18.6333 21.25 17.25C21.25 15.8667 20.7625 14.6875 19.7875 13.7125C18.8125 12.7375 17.6333 12.25 16.25 12.25C14.8667 12.25 13.6875 12.7375 12.7125 13.7125C11.7375 14.6875 11.25 15.8667 11.25 17.25C11.25 18.6333 11.7375 19.8125 12.7125 20.7875ZM18.3076 14.71C17.9268 14.3701 17.3218 14.2002 16.4927 14.2002H14.625V20.625H15.6797V18.2168H16.3652C16.834 18.2168 17.228 18.1611 17.5474 18.0498C17.8696 17.9385 18.1289 17.7876 18.3252 17.5972C18.5215 17.4038 18.6621 17.1826 18.7471 16.9336C18.835 16.6816 18.8789 16.4165 18.8789 16.1382C18.8789 15.5259 18.6885 15.0498 18.3076 14.71ZM16.4224 15.0747H15.6797V17.3379H16.2554C16.5864 17.3379 16.8677 17.2998 17.0991 17.2236C17.3306 17.1445 17.5063 17.02 17.6265 16.8501C17.7466 16.6802 17.8066 16.4561 17.8066 16.1777C17.8066 15.8057 17.6938 15.5288 17.4683 15.3472C17.2456 15.1655 16.897 15.0747 16.4224 15.0747Z" fill="#1B75BB"/>
</svg>
