<svg width="24" height="24" viewBox="0 0 24 24" fill="none" xmlns="http://www.w3.org/2000/svg">
<g clip-path="url(#clip0_4_4461)">
<path d="M12.2767 3.66675C10.5737 3.66691 8.90893 4.17207 7.493 5.11834C6.07706 6.06461 4.97352 7.4095 4.32191 8.98294C3.67031 10.5564 3.4999 12.2877 3.83225 13.958C4.16459 15.6283 4.98476 17.1625 6.18904 18.3667C7.39332 19.5708 8.92762 20.3908 10.5979 20.723C12.2683 21.0552 13.9996 20.8846 15.5729 20.2329C17.1463 19.5811 18.4911 18.4774 19.4372 17.0614C20.3834 15.6454 20.8884 13.9806 20.8884 12.2776C20.8875 9.99397 19.9799 7.80416 18.365 6.18948C16.7502 4.57481 14.5603 3.66741 12.2767 3.66675ZM12.2767 6.25008C12.7876 6.25008 13.2871 6.40159 13.7119 6.68545C14.1367 6.96931 14.4679 7.37277 14.6634 7.84482C14.8589 8.31686 14.9101 8.83628 14.8104 9.3374C14.7107 9.83852 14.4647 10.2988 14.1034 10.6601C13.7421 11.0214 13.2818 11.2674 12.7807 11.3671C12.2796 11.4668 11.7601 11.4156 11.2881 11.2201C10.816 11.0246 10.4126 10.6935 10.1287 10.2686C9.84487 9.84381 9.69336 9.34435 9.69336 8.83341C9.69336 8.14827 9.96553 7.49119 10.45 7.00672C10.9345 6.52225 11.5915 6.25008 12.2767 6.25008ZM12.2767 18.4776C11.2536 18.4775 10.2464 18.2244 9.34494 17.7406C8.44346 17.2569 7.67567 16.5576 7.11002 15.7051C7.13586 13.9917 10.5542 13.0526 12.2767 13.0526C13.9992 13.0526 17.4175 13.9909 17.4434 15.7051C16.8777 16.5576 16.1099 17.2569 15.2084 17.7406C14.3069 18.2244 13.2998 18.4775 12.2767 18.4776Z" fill="black"/>
</g>
<defs>
<clipPath id="clip0_4_4461">
<rect width="20" height="20" fill="white" transform="translate(2 2)"/>
</clipPath>
</defs>
</svg>
