<svg width="20" height="20" viewBox="0 0 20 20" fill="none" xmlns="http://www.w3.org/2000/svg">
<g clip-path="url(#clip0_49_111)">
<path fill-rule="evenodd" clip-rule="evenodd" d="M12.1017 2.935L15.7242 6.5575C16.0092 6.8425 16.1667 7.225 16.1667 7.6225V16C16.1667 16.825 15.4917 17.5 14.6667 17.5H5.66669C4.84169 17.5 4.16669 16.825 4.16669 16V4C4.16669 3.175 4.84169 2.5 5.66669 2.5H11.0442C11.4417 2.5 11.8242 2.6575 12.1017 2.935ZM14.1667 10C14.1667 12.3012 12.3012 14.1667 10 14.1667C7.69885 14.1667 5.83336 12.3012 5.83336 10C5.83336 7.69882 7.69885 5.83333 10 5.83333C12.3012 5.83333 14.1667 7.69882 14.1667 10Z" fill="black"/>
<path fill-rule="evenodd" clip-rule="evenodd" d="M9.16667 10.7838L11.9125 8.03796L12.5 8.62965L9.16667 11.963L7.5 10.2963L8.08749 9.7088L9.16667 10.7838Z" fill="black"/>
</g>
<defs>
<clipPath id="clip0_49_111">
<rect width="20" height="20" fill="white"/>
</clipPath>
</defs>
</svg>
