<svg width="16" height="16" viewBox="0 0 16 16" fill="none" xmlns="http://www.w3.org/2000/svg">
<path fill-rule="evenodd" clip-rule="evenodd" d="M7.99998 1.33337C4.31998 1.33337 1.33331 4.32004 1.33331 8.00004C1.33331 11.68 4.31998 14.6667 7.99998 14.6667C11.68 14.6667 14.6666 11.68 14.6666 8.00004C14.6666 4.32004 11.68 1.33337 7.99998 1.33337ZM7.99998 13.3334C5.05998 13.3334 2.66665 10.94 2.66665 8.00004C2.66665 5.06004 5.05998 2.66671 7.99998 2.66671C10.94 2.66671 13.3333 5.06004 13.3333 8.00004C13.3333 10.94 10.94 13.3334 7.99998 13.3334Z" fill="#624F04"/>
<path fill-rule="evenodd" clip-rule="evenodd" d="M8.99331 7.58671C9.27998 6.77337 9.10665 5.82671 8.45331 5.17337C7.71331 4.43337 6.59331 4.30671 5.71998 4.78004L7.28665 6.34671L6.34665 7.28671L4.77998 5.72004C4.30665 6.60004 4.43331 7.71337 5.17331 8.45337C5.82665 9.10671 6.77331 9.28004 7.58665 8.99337L9.85998 11.2667C9.99331 11.4 10.2 11.4 10.3333 11.2667L11.2666 10.3334C11.4 10.2 11.4 9.99337 11.2666 9.86004L8.99331 7.58671Z" fill="#624F04"/>
</svg>
