<svg width="24" height="24" viewBox="0 0 24 24" fill="none" xmlns="http://www.w3.org/2000/svg">
<path d="M12 5.33337C8.31998 5.33337 5.33331 8.32004 5.33331 12C5.33331 15.68 8.31998 18.6667 12 18.6667C15.68 18.6667 18.6666 15.68 18.6666 12C18.6666 8.32004 15.68 5.33337 12 5.33337ZM12 17.3334C9.05998 17.3334 6.66665 14.94 6.66665 12C6.66665 9.06004 9.05998 6.66671 12 6.66671C14.94 6.66671 17.3333 9.06004 17.3333 12C17.3333 14.94 14.94 17.3334 12 17.3334Z" fill="#003C66"/>
<path d="M14 10L13.3333 8.66671H9.33331V16H10.3333V12.6667H12L12.6666 14H16V10H14ZM15 13H13.2866L12.62 11.6667H10.3333V9.66671H12.7133L13.38 11H15V13Z" fill="#003C66"/>
</svg>
