<svg width="24" height="24" viewBox="0 0 24 24" fill="none" xmlns="http://www.w3.org/2000/svg">
<path fill-rule="evenodd" clip-rule="evenodd" d="M12 5.33337C8.31998 5.33337 5.33331 8.32004 5.33331 12C5.33331 15.68 8.31998 18.6667 12 18.6667C15.68 18.6667 18.6666 15.68 18.6666 12C18.6666 8.32004 15.68 5.33337 12 5.33337ZM12 17.3334C9.05998 17.3334 6.66665 14.94 6.66665 12C6.66665 9.06004 9.05998 6.66671 12 6.66671C14.94 6.66671 17.3333 9.06004 17.3333 12C17.3333 14.94 14.94 17.3334 12 17.3334Z" fill="#624F04"/>
<path fill-rule="evenodd" clip-rule="evenodd" d="M12.9933 11.5867C13.28 10.7734 13.1066 9.82671 12.4533 9.17337C11.7133 8.43337 10.5933 8.30671 9.71998 8.78004L11.2866 10.3467L10.3466 11.2867L8.77998 9.72004C8.30665 10.6 8.43331 11.7134 9.17331 12.4534C9.82665 13.1067 10.7733 13.28 11.5866 12.9934L13.86 15.2667C13.9933 15.4 14.2 15.4 14.3333 15.2667L15.2666 14.3334C15.4 14.2 15.4 13.9934 15.2666 13.86L12.9933 11.5867Z" fill="#624F04"/>
</svg>
