<svg width="16" height="16" viewBox="0 0 16 16" fill="none" xmlns="http://www.w3.org/2000/svg">
<g clip-path="url(#clip0_31_52)">
<path d="M10.6667 10.1666L12.6667 8.16662L10.6667 6.16663V7.66663H8.13669C7.96669 6.11663 7.00669 4.80663 5.66669 4.14163C5.64669 3.32163 4.98669 2.66663 4.16669 2.66663C3.33669 2.66663 2.66669 3.33663 2.66669 4.16663C2.66669 4.99663 3.33669 5.66663 4.16669 5.66663C4.64169 5.66663 5.05669 5.44163 5.33169 5.09663C6.28169 5.61663 6.96669 6.55163 7.12669 7.66663H5.57669C5.36669 7.08663 4.81669 6.66663 4.16669 6.66663C3.33669 6.66663 2.66669 7.33663 2.66669 8.16662C2.66669 8.99662 3.33669 9.66662 4.16669 9.66662C4.81669 9.66662 5.36669 9.24662 5.57669 8.66662H7.12669C6.96669 9.78162 6.28169 10.7166 5.33669 11.2366C5.05669 10.8916 4.64169 10.6666 4.16669 10.6666C3.33669 10.6666 2.66669 11.3366 2.66669 12.1666C2.66669 12.9966 3.33669 13.6666 4.16669 13.6666C4.98669 13.6666 5.64669 13.0116 5.66169 12.1916C7.00169 11.5266 7.96169 10.2166 8.13169 8.66662H10.6667V10.1666Z" fill="#333333"/>
</g>
<defs>
<clipPath id="clip0_31_52">
<rect width="16" height="16" fill="white"/>
</clipPath>
</defs>
</svg>
