<svg width="16" height="16" viewBox="0 0 16 16" fill="none" xmlns="http://www.w3.org/2000/svg">
<g clip-path="url(#clip0_31_50)">
<path d="M2.00002 3.33329H0.666687V14C0.666687 14.7333 1.26669 15.3333 2.00002 15.3333H12.6667V14H2.00002V3.33329ZM9.33335 9.99996H10.6667V3.33329H8.00002V4.66663H9.33335V9.99996ZM14 0.666626H4.66669C3.93335 0.666626 3.33335 1.26663 3.33335 1.99996V11.3333C3.33335 12.0666 3.93335 12.6666 4.66669 12.6666H14C14.7334 12.6666 15.3334 12.0666 15.3334 11.3333V1.99996C15.3334 1.26663 14.7334 0.666626 14 0.666626ZM14 11.3333H4.66669V1.99996H14V11.3333Z" fill="#333333"/>
</g>
<defs>
<clipPath id="clip0_31_50">
<rect width="16" height="16" fill="white"/>
</clipPath>
</defs>
</svg>
