<svg width="24" height="24" viewBox="0 0 24 24" fill="none" xmlns="http://www.w3.org/2000/svg">
<g clip-path="url(#clip0_29_25)">
<path d="M14.6667 14.1666L16.6667 12.1666L14.6667 10.1666V11.6666H12.1367C11.9667 10.1166 11.0067 8.80663 9.66669 8.14163C9.64669 7.32163 8.98669 6.66663 8.16669 6.66663C7.33669 6.66663 6.66669 7.33663 6.66669 8.16663C6.66669 8.99663 7.33669 9.66663 8.16669 9.66663C8.64169 9.66663 9.05669 9.44163 9.33169 9.09663C10.2817 9.61663 10.9667 10.5516 11.1267 11.6666H9.57669C9.36669 11.0866 8.81669 10.6666 8.16669 10.6666C7.33669 10.6666 6.66669 11.3366 6.66669 12.1666C6.66669 12.9966 7.33669 13.6666 8.16669 13.6666C8.81669 13.6666 9.36669 13.2466 9.57669 12.6666H11.1267C10.9667 13.7816 10.2817 14.7166 9.33669 15.2366C9.05669 14.8916 8.64169 14.6666 8.16669 14.6666C7.33669 14.6666 6.66669 15.3366 6.66669 16.1666C6.66669 16.9966 7.33669 17.6666 8.16669 17.6666C8.98669 17.6666 9.64669 17.0116 9.66169 16.1916C11.0017 15.5266 11.9617 14.2166 12.1317 12.6666H14.6667V14.1666Z" fill="#333333"/>
</g>
<defs>
<clipPath id="clip0_29_25">
<rect width="16" height="16" fill="white" transform="translate(4 4)"/>
</clipPath>
</defs>
</svg>
