<svg width="24" height="24" viewBox="0 0 24 24" fill="none" xmlns="http://www.w3.org/2000/svg">
<g clip-path="url(#clip0_29_24)">
<path d="M6.00002 7.33341H4.66669V18.0001C4.66669 18.7334 5.26669 19.3334 6.00002 19.3334H16.6667V18.0001H6.00002V7.33341ZM13.3334 14.0001H14.6667V7.33341H12V8.66675H13.3334V14.0001ZM18 4.66675H8.66669C7.93335 4.66675 7.33335 5.26675 7.33335 6.00008V15.3334C7.33335 16.0667 7.93335 16.6667 8.66669 16.6667H18C18.7334 16.6667 19.3334 16.0667 19.3334 15.3334V6.00008C19.3334 5.26675 18.7334 4.66675 18 4.66675ZM18 15.3334H8.66669V6.00008H18V15.3334Z" fill="#333333"/>
</g>
<defs>
<clipPath id="clip0_29_24">
<rect width="16" height="16" fill="white" transform="translate(4 4)"/>
</clipPath>
</defs>
</svg>
