<svg width="20" height="21" viewBox="0 0 20 21" fill="none" xmlns="http://www.w3.org/2000/svg">
<mask id="path-1-inside-1_7074_18589" fill="white">
<path d="M11.25 1.75V11.2422L14.1016 8.39062C14.5703 7.88281 15.3906 7.88281 15.8594 8.39062C16.3672 8.85938 16.3672 9.67969 15.8594 10.1484L10.8594 15.1484C10.3906 15.6562 9.57031 15.6562 9.10156 15.1484L4.10156 10.1484C3.59375 9.67969 3.59375 8.85938 4.10156 8.39062C4.57031 7.88281 5.39062 7.88281 5.85938 8.39062L8.75 11.2422V1.75C8.75 1.08594 9.29688 0.5 10 0.5C10.6641 0.5 11.25 1.08594 11.25 1.75ZM2.5 14.25H6.44531L8.20312 16.0469C9.17969 17.0234 10.7812 17.0234 11.7578 16.0469L13.5156 14.25H17.5C18.8672 14.25 20 15.3828 20 16.75V18C20 19.4062 18.8672 20.5 17.5 20.5H2.5C1.09375 20.5 0 19.4062 0 18V16.75C0 15.3828 1.09375 14.25 2.5 14.25ZM16.875 16.4375C16.3281 16.4375 15.9375 16.8672 15.9375 17.375C15.9375 17.9219 16.3281 18.3125 16.875 18.3125C17.3828 18.3125 17.8125 17.9219 17.8125 17.375C17.8125 16.8672 17.3828 16.4375 16.875 16.4375Z"/>
</mask>
<path d="M11.25 1.75V11.2422L14.1016 8.39062C14.5703 7.88281 15.3906 7.88281 15.8594 8.39062C16.3672 8.85938 16.3672 9.67969 15.8594 10.1484L10.8594 15.1484C10.3906 15.6562 9.57031 15.6562 9.10156 15.1484L4.10156 10.1484C3.59375 9.67969 3.59375 8.85938 4.10156 8.39062C4.57031 7.88281 5.39062 7.88281 5.85938 8.39062L8.75 11.2422V1.75C8.75 1.08594 9.29688 0.5 10 0.5C10.6641 0.5 11.25 1.08594 11.25 1.75ZM2.5 14.25H6.44531L8.20312 16.0469C9.17969 17.0234 10.7812 17.0234 11.7578 16.0469L13.5156 14.25H17.5C18.8672 14.25 20 15.3828 20 16.75V18C20 19.4062 18.8672 20.5 17.5 20.5H2.5C1.09375 20.5 0 19.4062 0 18V16.75C0 15.3828 1.09375 14.25 2.5 14.25ZM16.875 16.4375C16.3281 16.4375 15.9375 16.8672 15.9375 17.375C15.9375 17.9219 16.3281 18.3125 16.875 18.3125C17.3828 18.3125 17.8125 17.9219 17.8125 17.375C17.8125 16.8672 17.3828 16.4375 16.875 16.4375Z" fill="black"/>
<path d="M11.25 11.2422H10.25V13.6564L11.9571 11.9493L11.25 11.2422ZM14.1016 8.39062L14.8087 9.09773L14.8228 9.0836L14.8364 9.06891L14.1016 8.39062ZM15.8594 8.39062L15.1246 9.06891L15.1517 9.0983L15.1811 9.12543L15.8594 8.39062ZM15.8594 10.1484L15.1811 9.41363L15.1664 9.42719L15.1523 9.44133L15.8594 10.1484ZM10.8594 15.1484L10.1523 14.4413L10.1381 14.4555L10.1246 14.4702L10.8594 15.1484ZM9.10156 15.1484L9.83637 14.4702L9.82281 14.4555L9.80867 14.4413L9.10156 15.1484ZM4.10156 10.1484L4.80867 9.44133L4.79453 9.42719L4.77984 9.41363L4.10156 10.1484ZM4.10156 8.39062L4.77984 9.12543L4.80923 9.0983L4.83637 9.06891L4.10156 8.39062ZM5.85938 8.39062L5.12457 9.06891L5.14044 9.0861L5.15709 9.10253L5.85938 8.39062ZM8.75 11.2422L8.04772 11.9541L9.75 13.6334V11.2422H8.75ZM6.44531 14.25L7.16015 13.5507L6.86598 13.25H6.44531V14.25ZM8.20312 16.0469L7.48825 16.7462L7.49602 16.754L8.20312 16.0469ZM11.7578 16.0469L12.465 16.754L12.4726 16.7462L11.7578 16.0469ZM13.5156 14.25V13.25H13.095L12.8008 13.5507L13.5156 14.25ZM10.25 1.75V11.2422H12.25V1.75H10.25ZM11.9571 11.9493L14.8087 9.09773L13.3945 7.68352L10.5429 10.5351L11.9571 11.9493ZM14.8364 9.06891C14.8691 9.03348 14.9185 9.00977 14.9805 9.00977C15.0424 9.00977 15.0919 9.03348 15.1246 9.06891L16.5942 7.71234C15.7295 6.77557 14.2315 6.77557 13.3668 7.71234L14.8364 9.06891ZM15.1811 9.12543C15.2165 9.15813 15.2402 9.20759 15.2402 9.26953C15.2402 9.33147 15.2165 9.38093 15.1811 9.41363L16.5377 10.8832C17.4744 10.0185 17.4744 8.52053 16.5377 7.65582L15.1811 9.12543ZM15.1523 9.44133L10.1523 14.4413L11.5665 15.8555L16.5665 10.8555L15.1523 9.44133ZM10.1246 14.4702C10.0919 14.5056 10.0424 14.5293 9.98047 14.5293C9.91853 14.5293 9.86907 14.5056 9.83637 14.4702L8.36676 15.8267C9.23147 16.7635 10.7295 16.7635 11.5942 15.8267L10.1246 14.4702ZM9.80867 14.4413L4.80867 9.44133L3.39446 10.8555L8.39446 15.8555L9.80867 14.4413ZM4.77984 9.41363C4.74442 9.38093 4.7207 9.33147 4.7207 9.26953C4.7207 9.20759 4.74442 9.15813 4.77984 9.12543L3.42328 7.65582C2.48651 8.52053 2.48651 10.0185 3.42328 10.8832L4.77984 9.41363ZM4.83637 9.06891C4.86907 9.03348 4.91853 9.00977 4.98047 9.00977C5.04241 9.00977 5.09187 9.03348 5.12457 9.06891L6.59418 7.71234C5.72947 6.77557 4.23147 6.77557 3.36676 7.71234L4.83637 9.06891ZM5.15709 9.10253L8.04772 11.9541L9.45228 10.5303L6.56166 7.67872L5.15709 9.10253ZM9.75 11.2422V1.75H7.75V11.2422H9.75ZM9.75 1.75C9.75 1.69382 9.774 1.62857 9.826 1.57544C9.87501 1.52536 9.93477 1.5 10 1.5V-0.5C8.72442 -0.5 7.75 0.554036 7.75 1.75H9.75ZM10 1.5C10.0358 1.5 10.1018 1.51799 10.1669 1.58308C10.232 1.64817 10.25 1.7142 10.25 1.75H12.25C12.25 0.533653 11.2163 -0.5 10 -0.5V1.5ZM2.5 15.25H6.44531V13.25H2.5V15.25ZM5.73048 14.9493L7.48829 16.7462L8.91796 15.3476L7.16015 13.5507L5.73048 14.9493ZM7.49602 16.754C8.86311 18.1211 11.0978 18.1211 12.4649 16.754L11.0507 15.3398C10.4647 15.9258 9.49627 15.9258 8.91023 15.3398L7.49602 16.754ZM12.4726 16.7462L14.2305 14.9493L12.8008 13.5507L11.043 15.3476L12.4726 16.7462ZM13.5156 15.25H17.5V13.25H13.5156V15.25ZM17.5 15.25C18.3149 15.25 19 15.9351 19 16.75H21C21 14.8305 19.4195 13.25 17.5 13.25V15.25ZM19 16.75V18H21V16.75H19ZM19 18C19 18.8438 18.3251 19.5 17.5 19.5V21.5C19.4093 21.5 21 19.9687 21 18H19ZM17.5 19.5H2.5V21.5H17.5V19.5ZM2.5 19.5C1.64603 19.5 1 18.854 1 18H-1C-1 19.9585 0.541465 21.5 2.5 21.5V19.5ZM1 18V16.75H-1V18H1ZM1 16.75C1 15.9249 1.6562 15.25 2.5 15.25V13.25C0.5313 13.25 -1 14.8407 -1 16.75H1ZM16.875 15.4375C15.7487 15.4375 14.9375 16.3424 14.9375 17.375H16.9375C16.9375 17.3796 16.9349 17.3956 16.9185 17.4126C16.9102 17.4211 16.8999 17.4283 16.8887 17.433C16.877 17.438 16.8708 17.4375 16.875 17.4375V15.4375ZM14.9375 17.375C14.9375 18.4742 15.7758 19.3125 16.875 19.3125V17.3125C16.858 17.3125 16.8571 17.3096 16.8675 17.3138C16.878 17.3179 16.8933 17.3267 16.9083 17.3417C16.9233 17.3567 16.9321 17.372 16.9362 17.3825C16.9404 17.3929 16.9375 17.392 16.9375 17.375H14.9375ZM16.875 19.3125C17.9076 19.3125 18.8125 18.5013 18.8125 17.375H16.8125C16.8125 17.3792 16.812 17.373 16.817 17.3613C16.8217 17.3501 16.8289 17.3398 16.8374 17.3315C16.8544 17.3151 16.8704 17.3125 16.875 17.3125V19.3125ZM18.8125 17.375C18.8125 16.3149 17.9351 15.4375 16.875 15.4375V17.4375C16.8427 17.4375 16.8283 17.4242 16.8271 17.4229C16.8258 17.4217 16.8125 17.4073 16.8125 17.375H18.8125Z" fill="black" mask="url(#path-1-inside-1_7074_18589)"/>
</svg>
