<svg width="15" height="21" viewBox="0 0 15 21" fill="none" xmlns="http://www.w3.org/2000/svg">
<path d="M2.5 0.5H8.75V5.5C8.75 6.20312 9.29688 6.75 10 6.75H15V18C15 19.4062 13.8672 20.5 12.5 20.5H2.5C1.09375 20.5 0 19.4062 0 18V3C0 1.63281 1.09375 0.5 2.5 0.5ZM10 0.5L15 5.5H10V0.5ZM4.375 10.5C4.02344 10.5 3.75 10.8125 3.75 11.125C3.75 11.4766 4.02344 11.75 4.375 11.75H10.625C10.9375 11.75 11.25 11.4766 11.25 11.125C11.25 10.8125 10.9375 10.5 10.625 10.5H4.375ZM4.375 13C4.02344 13 3.75 13.3125 3.75 13.625C3.75 13.9766 4.02344 14.25 4.375 14.25H10.625C10.9375 14.25 11.25 13.9766 11.25 13.625C11.25 13.3125 10.9375 13 10.625 13H4.375ZM4.375 15.5C4.02344 15.5 3.75 15.8125 3.75 16.125C3.75 16.4766 4.02344 16.75 4.375 16.75H10.625C10.9375 16.75 11.25 16.4766 11.25 16.125C11.25 15.8125 10.9375 15.5 10.625 15.5H4.375Z" fill="black"/>
</svg>
